<?xml version="1.0" standalone="no"?>
<!DOCTYPE svg PUBLIC "-//W3C//DTD SVG 20010904//EN"
 "http://www.w3.org/TR/2001/REC-SVG-20010904/DTD/svg10.dtd">
<svg version="1.0" xmlns="http://www.w3.org/2000/svg"
 width="32.000000pt" height="32.000000pt" viewBox="0 0 32.000000 32.000000"
 preserveAspectRatio="xMidYMid meet">

<g transform="translate(0.000000,32.000000) scale(0.100000,-0.100000)"
fill="#000000" stroke="none">
<path d="M116 287 c-27 -27 -116 -187 -116 -209 0 -32 40 -68 75 -68 19 0 37
5 40 10 4 7 12 7 25 0 25 -13 136 -13 161 0 23 13 27 81 5 99 -8 6 -36 14 -64
18 l-49 5 23 42 c29 51 30 66 3 100 -26 33 -71 35 -103 3z m86 -4 c10 -9 18
-27 18 -40 0 -26 -36 -103 -48 -103 -4 0 -28 13 -54 28 l-47 28 20 34 c44 73
74 87 111 53z m28 -161 c0 -15 -71 -35 -83 -23 -11 11 -2 17 43 24 14 2 28 5
33 6 4 0 7 -3 7 -7z m63 -17 c1 -5 -18 -11 -43 -12 l-45 -3 30 14 c33 16 55
16 58 1z m15 -49 c-7 -45 -169 -46 -176 -1 -3 19 3 21 88 21 87 1 91 0 88 -20z"/>
<path d="M130 275 c-7 -8 -8 -15 -2 -15 5 0 15 7 22 15 7 8 8 15 2 15 -5 0
-15 -7 -22 -15z"/>
</g>
</svg>
